<svg width="95" height="114" viewBox="0 0 95 114" fill="none" xmlns="http://www.w3.org/2000/svg">
<path d="M2 30.7711L47.1984 3L92.3968 30.7711V86.5341L47.1984 114.306L2 86.5341V30.7711Z" stroke="#64FFDA" stroke-width="4"/>
<path d="M39.9326 70V46H48.042C49.9248 46 51.4639 46.3398 52.6592 47.0195C53.8623 47.6914 54.7529 48.6016 55.3311 49.75C55.9092 50.8984 56.1982 52.1797 56.1982 53.5937C56.1982 55.0078 55.9092 56.293 55.3311 57.4492C54.7607 58.6055 53.8779 59.5273 52.6826 60.2148C51.4873 60.8945 49.9561 61.2344 48.0889 61.2344H42.2764V58.6562H47.9951C49.2842 58.6562 50.3193 58.4336 51.1006 57.9883C51.8818 57.543 52.4482 56.9414 52.7998 56.1836C53.1592 55.418 53.3389 54.5547 53.3389 53.5937C53.3389 52.6328 53.1592 51.7734 52.7998 51.0156C52.4482 50.2578 51.8779 49.6641 51.0889 49.2344C50.2998 48.7969 49.2529 48.5781 47.9482 48.5781H42.8389V70H39.9326Z" fill="#64FFDA"/>
</svg>